<svg width="16" height="16" viewBox="0 0 16 16" fill="none" xmlns="http://www.w3.org/2000/svg">
<g clip-path="url(#clip0_115_6)">
<path d="M8.16016 6.54492V9.64311H12.4656C12.2765 10.6395 11.7092 11.4832 10.8583 12.0504L13.4546 14.065C14.9673 12.6687 15.8401 10.6177 15.8401 8.18137C15.8401 7.6141 15.7892 7.0686 15.6946 6.54501L8.16016 6.54492Z" fill="#4285F4"/>
<path d="M3.67786 9.52344L3.09229 9.97169L1.01953 11.5863C2.33589 14.1971 5.03387 16.0008 8.16112 16.0008C10.3211 16.0008 12.132 15.2881 13.4557 14.0663L10.8593 12.0517C10.1466 12.5317 9.23744 12.8227 8.16112 12.8227C6.08113 12.8227 4.31391 11.419 3.68113 9.52806L3.67786 9.52344Z" fill="#34A853"/>
<path d="M1.01827 4.41406C0.472851 5.49038 0.160156 6.70494 0.160156 7.99946C0.160156 9.29398 0.472851 10.5085 1.01827 11.5849C1.01827 11.5921 3.68014 9.51942 3.68014 9.51942C3.52014 9.03942 3.42556 8.53036 3.42556 7.99938C3.42556 7.4684 3.52014 6.95934 3.68014 6.47934L1.01827 4.41406Z" fill="#FBBC05"/>
<path d="M8.16128 3.18545C9.33948 3.18545 10.3868 3.59271 11.2231 4.37818L13.514 2.0873C12.1249 0.792777 10.3214 0 8.16128 0C5.03403 0 2.33589 1.79636 1.01953 4.41455L3.68131 6.48001C4.314 4.58908 6.08129 3.18545 8.16128 3.18545Z" fill="#EA4335"/>
</g>
<defs>
<clipPath id="clip0_115_6">
<rect width="16" height="16" fill="white"/>
</clipPath>
</defs>
</svg>
