<svg width="796" height="594" viewBox="0 0 796 594" fill="none" xmlns="http://www.w3.org/2000/svg">
<path fill-rule="evenodd" clip-rule="evenodd" d="M597.315 296.816L497.805 247.362V148.455L597.315 197.909L696.825 148.455V247.362L597.315 296.816ZM597.315 99.002L696.825 148.455L597.315 197.909L497.805 148.455L597.315 99.002Z" fill="#FAAE40"/>
<path fill-rule="evenodd" clip-rule="evenodd" d="M597.312 197.909L696.823 148.456V247.363L597.312 296.816V197.909Z" fill="black" fill-opacity="0.1"/>
<path fill-rule="evenodd" clip-rule="evenodd" d="M597.315 197.91L497.805 148.456V247.363L597.315 296.816V197.91ZM629.656 136.093V148.456C629.656 155.284 615.733 160.82 598.559 160.82C581.384 160.82 567.462 155.284 567.462 148.456V136.093C567.462 142.921 581.384 148.456 598.559 148.456C615.733 148.456 629.656 142.921 629.656 136.093Z" fill="black" fill-opacity="0.2"/>
<path fill-rule="evenodd" clip-rule="evenodd" d="M497.752 346.318L398.242 296.864V197.957L497.752 247.411L597.262 197.957V296.864L497.752 346.318ZM497.752 148.504L597.262 197.957L497.752 247.411L398.242 197.957L497.752 148.504Z" fill="#FAAE40"/>
<path fill-rule="evenodd" clip-rule="evenodd" d="M497.75 247.41L597.26 197.957V296.864L497.75 346.317V247.41Z" fill="black" fill-opacity="0.1"/>
<path fill-rule="evenodd" clip-rule="evenodd" d="M497.752 247.411L398.242 197.957V296.864L497.752 346.317V247.411ZM530.093 185.594V197.957C530.093 204.785 516.17 210.32 498.996 210.32C481.822 210.32 467.899 204.785 467.899 197.957V185.594C467.899 192.422 481.822 197.957 498.996 197.957C516.17 197.957 530.093 192.422 530.093 185.594Z" fill="black" fill-opacity="0.2"/>
<path fill-rule="evenodd" clip-rule="evenodd" d="M398.19 395.819L298.68 346.365V247.458L398.19 296.912L497.7 247.458V346.365L398.19 395.819ZM398.19 198.005L497.7 247.458L398.19 296.912L298.68 247.458L398.19 198.005Z" fill="#F38020"/>
<path fill-rule="evenodd" clip-rule="evenodd" d="M398.195 296.911L497.705 247.458V346.365L398.195 395.818V296.911Z" fill="black" fill-opacity="0.1"/>
<path fill-rule="evenodd" clip-rule="evenodd" d="M398.19 296.912L298.68 247.458V346.365L398.19 395.818V296.912ZM430.53 235.095V247.458C430.53 254.286 416.608 259.821 399.434 259.821C382.259 259.821 368.337 254.286 368.337 247.458V235.095C368.337 241.923 382.259 247.458 399.434 247.458C416.608 247.458 430.53 241.923 430.53 235.095Z" fill="black" fill-opacity="0.2"/>
<path fill-rule="evenodd" clip-rule="evenodd" d="M298.627 445.32L199.117 395.866V296.959L298.627 346.413L398.137 296.959V395.866L298.627 445.32V445.32ZM298.627 247.506L398.137 296.959L298.627 346.413L199.117 296.959L298.627 247.506V247.506Z" fill="#F38020"/>
<path fill-rule="evenodd" clip-rule="evenodd" d="M298.625 346.412L398.135 296.959V395.866L298.625 445.319V346.412Z" fill="black" fill-opacity="0.1"/>
<path fill-rule="evenodd" clip-rule="evenodd" d="M298.627 346.413L199.117 296.959V395.866L298.627 445.319V346.413ZM330.968 284.596V296.959C330.968 303.787 317.045 309.322 299.871 309.322C282.697 309.322 268.774 303.787 268.774 296.959V284.596C268.774 291.424 282.697 296.959 299.871 296.959C317.045 296.959 330.968 291.424 330.968 284.596Z" fill="black" fill-opacity="0.2"/>
<path fill-rule="evenodd" clip-rule="evenodd" d="M199.073 494.82L99.5625 445.366V346.459L199.073 395.913L298.583 346.459V445.366L199.073 494.82ZM199.073 297.006L298.583 346.459L199.073 395.913L99.5625 346.459L199.073 297.006Z" fill="#F38020"/>
<path fill-rule="evenodd" clip-rule="evenodd" d="M199.07 395.913L298.58 346.46V445.367L199.07 494.82V395.913Z" fill="black" fill-opacity="0.1"/>
<path fill-rule="evenodd" clip-rule="evenodd" d="M199.073 395.913L99.5625 346.459V445.366L199.073 494.82V395.913ZM231.413 334.096V346.459C231.413 353.287 217.491 358.822 200.316 358.822C183.142 358.822 169.22 353.287 169.22 346.459V334.096C169.22 340.924 183.142 346.459 200.316 346.459C217.491 346.459 231.413 340.924 231.413 334.096Z" fill="black" fill-opacity="0.2"/>
<path fill-rule="evenodd" clip-rule="evenodd" d="M497.752 247.316L398.242 197.862V98.9554L497.752 148.409L597.262 98.9554V197.862L497.752 247.316ZM497.752 49.502L597.262 98.9554L497.752 148.409L398.242 98.9554L497.752 49.502Z" fill="white"/>
<path fill-rule="evenodd" clip-rule="evenodd" d="M497.75 148.409L597.26 98.9551V197.862L497.75 247.315V148.409Z" fill="black" fill-opacity="0.1"/>
<path fill-rule="evenodd" clip-rule="evenodd" d="M497.752 148.409L398.242 98.9552V197.862L497.752 247.316V148.409ZM530.093 86.5918V98.9552C530.093 105.783 516.17 111.319 498.996 111.319C481.822 111.319 467.899 105.783 467.899 98.9552V86.5918C467.899 93.4199 481.822 98.9552 498.996 98.9552C516.17 98.9552 530.093 93.4199 530.093 86.5918V86.5918Z" fill="black" fill-opacity="0.2"/>
<path fill-rule="evenodd" clip-rule="evenodd" d="M398.19 296.816L298.68 247.362V148.455L398.19 197.909L497.7 148.455V247.362L398.19 296.816ZM398.19 99.002L497.7 148.455L398.19 197.909L298.68 148.455L398.19 99.002Z" fill="white"/>
<path fill-rule="evenodd" clip-rule="evenodd" d="M398.188 197.909L497.698 148.455V247.362L398.188 296.815V197.909Z" fill="black" fill-opacity="0.1"/>
<path fill-rule="evenodd" clip-rule="evenodd" d="M398.19 197.909L298.68 148.455V247.362L398.19 296.816V197.909ZM430.53 136.092V148.455C430.53 155.283 416.608 160.819 399.434 160.819C382.259 160.819 368.337 155.283 368.337 148.455V136.092C368.337 142.92 382.259 148.455 399.434 148.455C416.608 148.455 430.53 142.92 430.53 136.092Z" fill="black" fill-opacity="0.2"/>
<path fill-rule="evenodd" clip-rule="evenodd" d="M298.627 346.318L199.117 296.864V197.957L298.627 247.411L398.137 197.957V296.864L298.627 346.318V346.318ZM298.627 148.504L398.137 197.957L298.627 247.411L199.117 197.957L298.627 148.504V148.504Z" fill="#F38020"/>
<path fill-rule="evenodd" clip-rule="evenodd" d="M298.625 247.411L398.135 197.958V296.865L298.625 346.318V247.411Z" fill="black" fill-opacity="0.1"/>
<path fill-rule="evenodd" clip-rule="evenodd" d="M298.627 247.412L199.117 197.958V296.865L298.627 346.318V247.412ZM330.968 185.595V197.958C330.968 204.786 317.045 210.321 299.871 210.321C282.697 210.321 268.774 204.786 268.774 197.958V185.595C268.774 192.423 282.697 197.958 299.871 197.958C317.045 197.958 330.968 192.423 330.968 185.595Z" fill="black" fill-opacity="0.2"/>
<path fill-rule="evenodd" clip-rule="evenodd" d="M199.073 395.819L99.5625 346.365V247.458L199.073 296.912L298.583 247.458V346.365L199.073 395.819ZM199.073 198.005L298.583 247.458L199.073 296.912L99.5625 247.458L199.073 198.005Z" fill="#F38020"/>
<path fill-rule="evenodd" clip-rule="evenodd" d="M199.07 296.912L298.58 247.459V346.366L199.07 395.819V296.912Z" fill="black" fill-opacity="0.1"/>
<path fill-rule="evenodd" clip-rule="evenodd" d="M199.073 296.912L99.5625 247.458V346.365L199.073 395.818V296.912ZM231.413 235.095V247.458C231.413 254.286 217.491 259.821 200.316 259.821C183.142 259.821 169.22 254.286 169.22 247.458V235.095C169.22 241.923 183.142 247.458 200.316 247.458C217.491 247.458 231.413 241.923 231.413 235.095Z" fill="black" fill-opacity="0.2"/>
<path fill-rule="evenodd" clip-rule="evenodd" d="M99.51 544.322L0 494.868V395.961L99.51 445.415L199.02 395.961V494.868L99.51 544.322ZM99.51 346.508L199.02 395.961L99.51 445.415L0 395.961L99.51 346.508Z" fill="#F38020"/>
<path fill-rule="evenodd" clip-rule="evenodd" d="M99.5078 445.414L199.018 395.961V494.868L99.5078 544.321V445.414Z" fill="black" fill-opacity="0.1"/>
<path fill-rule="evenodd" clip-rule="evenodd" d="M99.51 445.414L0 395.961V494.868L99.51 544.321V445.414ZM131.851 383.598V395.961C131.851 402.789 117.928 408.324 100.754 408.324C83.5796 408.324 69.657 402.789 69.657 395.961V383.598C69.657 390.426 83.5796 395.961 100.754 395.961C117.928 395.961 131.851 390.426 131.851 383.598Z" fill="black" fill-opacity="0.2"/>
<path fill-rule="evenodd" clip-rule="evenodd" d="M99.51 544.322L0 494.868V395.961L99.51 445.415L199.02 395.961V494.868L99.51 544.322ZM99.51 346.508L199.02 395.961L99.51 445.415L0 395.961L99.51 346.508Z" fill="#F38020"/>
<path fill-rule="evenodd" clip-rule="evenodd" d="M99.5078 445.414L199.018 395.961V494.868L99.5078 544.321V445.414Z" fill="black" fill-opacity="0.1"/>
<path fill-rule="evenodd" clip-rule="evenodd" d="M99.51 445.414L0 395.961V494.868L99.51 544.321V445.414ZM131.851 383.598V395.961C131.851 402.789 117.928 408.324 100.754 408.324C83.5796 408.324 69.657 402.789 69.657 395.961V383.598C69.657 390.426 83.5796 395.961 100.754 395.961C117.928 395.961 131.851 390.426 131.851 383.598Z" fill="black" fill-opacity="0.2"/>
<path fill-rule="evenodd" clip-rule="evenodd" d="M398.19 197.814L298.68 148.36V49.4535L398.19 98.9069L497.7 49.4535V148.36L398.19 197.814ZM398.19 0L497.7 49.4535L398.19 98.9069L298.68 49.4535L398.19 0Z" fill="#F38020"/>
<path fill-rule="evenodd" clip-rule="evenodd" d="M398.188 98.9066L497.698 49.4531V148.36L398.188 197.814V98.9066Z" fill="black" fill-opacity="0.1"/>
<path fill-rule="evenodd" clip-rule="evenodd" d="M398.19 98.9066L298.68 49.4532V148.36L398.19 197.814V98.9066ZM430.53 37.0898V49.4532C430.53 56.2813 416.608 61.8166 399.434 61.8166C382.259 61.8166 368.337 56.2813 368.337 49.4532V37.0898C368.337 43.9179 382.259 49.4532 399.434 49.4532C416.608 49.4532 430.53 43.9179 430.53 37.0898Z" fill="black" fill-opacity="0.2"/>
<path fill-rule="evenodd" clip-rule="evenodd" d="M696.471 345.744L596.961 296.291V197.384L696.471 246.838L795.981 197.384V296.291L696.471 345.744ZM696.471 147.931L795.981 197.384L696.471 246.838L596.961 197.384L696.471 147.931Z" fill="#FAAE40"/>
<path fill-rule="evenodd" clip-rule="evenodd" d="M696.477 246.838L795.987 197.385V296.292L696.477 345.745V246.838Z" fill="black" fill-opacity="0.1"/>
<path fill-rule="evenodd" clip-rule="evenodd" d="M696.471 345.744L596.961 296.291V197.384L696.471 246.838L795.981 197.384V296.291L696.471 345.744ZM696.471 147.931L795.981 197.384L696.471 246.838L596.961 197.384L696.471 147.931Z" fill="#FAAE40"/>
<path fill-rule="evenodd" clip-rule="evenodd" d="M696.477 246.838L795.987 197.385V296.292L696.477 345.745V246.838Z" fill="black" fill-opacity="0.1"/>
<path fill-rule="evenodd" clip-rule="evenodd" d="M696.471 246.838L596.961 197.385V296.292L696.471 345.745V246.838ZM728.812 185.021V197.385C728.812 204.213 714.889 209.748 697.715 209.748C680.541 209.748 666.618 204.213 666.618 197.385V185.021C666.618 191.85 680.541 197.385 697.715 197.385C714.889 197.385 728.812 191.85 728.812 185.021Z" fill="black" fill-opacity="0.2"/>
<path fill-rule="evenodd" clip-rule="evenodd" d="M596.916 395.246L497.406 345.793V246.886L596.916 296.34L696.426 246.886V345.793L596.916 395.246ZM596.916 197.433L696.426 246.886L596.916 296.34L497.406 246.886L596.916 197.433Z" fill="#FAAE40"/>
<path fill-rule="evenodd" clip-rule="evenodd" d="M596.914 296.339L696.424 246.886V345.793L596.914 395.246V296.339Z" fill="black" fill-opacity="0.1"/>
<path fill-rule="evenodd" clip-rule="evenodd" d="M596.916 296.339L497.406 246.886V345.793L596.916 395.246V296.339ZM629.257 234.522V246.886C629.257 253.714 615.334 259.249 598.16 259.249C580.986 259.249 567.063 253.714 567.063 246.886V234.522C567.063 241.351 580.986 246.886 598.16 246.886C615.334 246.886 629.257 241.351 629.257 234.522Z" fill="black" fill-opacity="0.2"/>
<path fill-rule="evenodd" clip-rule="evenodd" d="M497.354 444.747L397.844 395.294V296.387L497.354 345.84L596.864 296.387V395.294L497.354 444.747ZM497.354 246.934L596.864 296.387L497.354 345.841L397.844 296.387L497.354 246.934Z" fill="#F38020"/>
<path fill-rule="evenodd" clip-rule="evenodd" d="M497.359 345.84L596.869 296.387V395.294L497.359 444.747V345.84Z" fill="black" fill-opacity="0.1"/>
<path fill-rule="evenodd" clip-rule="evenodd" d="M497.354 345.84L397.844 296.387V395.294L497.354 444.747V345.84ZM529.695 284.023V296.387C529.695 303.215 515.772 308.75 498.598 308.75C481.423 308.75 467.501 303.215 467.501 296.387V284.023C467.501 290.852 481.423 296.387 498.598 296.387C515.772 296.387 529.695 290.852 529.695 284.023Z" fill="black" fill-opacity="0.2"/>
<path fill-rule="evenodd" clip-rule="evenodd" d="M397.791 494.248L298.281 444.795V345.888L397.791 395.341L497.301 345.888V444.795L397.791 494.248ZM397.791 296.435L497.301 345.888L397.791 395.341L298.281 345.888L397.791 296.435Z" fill="#F38020"/>
<path fill-rule="evenodd" clip-rule="evenodd" d="M397.789 395.341L497.299 345.888V444.795L397.789 494.248V395.341Z" fill="black" fill-opacity="0.1"/>
<path fill-rule="evenodd" clip-rule="evenodd" d="M397.791 395.341L298.281 345.888V444.795L397.791 494.248V395.341ZM430.132 333.524V345.888C430.132 352.716 416.209 358.251 399.035 358.251C381.861 358.251 367.938 352.716 367.938 345.888V333.524C367.938 340.353 381.861 345.888 399.035 345.888C416.209 345.888 430.132 340.353 430.132 333.524Z" fill="black" fill-opacity="0.2"/>
<path fill-rule="evenodd" clip-rule="evenodd" d="M298.229 543.749L198.719 494.296V395.389L298.229 444.842L397.739 395.389V494.296L298.229 543.749V543.749ZM298.229 345.936L397.739 395.389L298.229 444.842L198.719 395.389L298.229 345.936V345.936Z" fill="#F38020"/>
<path fill-rule="evenodd" clip-rule="evenodd" d="M298.227 444.842L397.737 395.389V494.296L298.227 543.749V444.842Z" fill="black" fill-opacity="0.1"/>
<path fill-rule="evenodd" clip-rule="evenodd" d="M298.229 444.842L198.719 395.389V494.296L298.229 543.749V444.842ZM330.57 383.025V395.389C330.57 402.217 316.647 407.752 299.473 407.752C282.298 407.752 268.376 402.217 268.376 395.389V383.025C268.376 389.853 282.298 395.389 299.473 395.389C316.647 395.389 330.57 389.853 330.57 383.025Z" fill="black" fill-opacity="0.2"/>
<path fill-rule="evenodd" clip-rule="evenodd" d="M596.916 296.244L497.406 246.79V147.883L596.916 197.337L696.426 147.883V246.79L596.916 296.244ZM596.916 98.4297L696.426 147.883L596.916 197.337L497.406 147.883L596.916 98.4297Z" fill="white"/>
<path fill-rule="evenodd" clip-rule="evenodd" d="M596.914 197.337L696.424 147.884V246.791L596.914 296.244V197.337Z" fill="black" fill-opacity="0.1"/>
<path fill-rule="evenodd" clip-rule="evenodd" d="M596.916 197.337L497.406 147.884V246.791L596.916 296.244V197.337ZM629.257 135.521V147.884C629.257 154.712 615.334 160.247 598.16 160.247C580.986 160.247 567.063 154.712 567.063 147.884V135.521C567.063 142.349 580.986 147.884 598.16 147.884C615.334 147.884 629.257 142.349 629.257 135.521Z" fill="black" fill-opacity="0.2"/>
<path fill-rule="evenodd" clip-rule="evenodd" d="M497.354 345.745L397.844 296.292V197.385L497.354 246.839L596.864 197.385V296.292L497.354 345.745ZM497.354 147.932L596.864 197.385L497.354 246.839L397.844 197.385L497.354 147.932Z" fill="white"/>
<path fill-rule="evenodd" clip-rule="evenodd" d="M497.352 246.838L596.862 197.385V296.292L497.352 345.745V246.838Z" fill="black" fill-opacity="0.1"/>
<path fill-rule="evenodd" clip-rule="evenodd" d="M497.354 246.838L397.844 197.385V296.292L497.354 345.745V246.838ZM529.695 185.021V197.385C529.695 204.213 515.772 209.748 498.598 209.748C481.423 209.748 467.501 204.213 467.501 197.385V185.021C467.501 191.85 481.423 197.385 498.598 197.385C515.772 197.385 529.695 191.85 529.695 185.021Z" fill="black" fill-opacity="0.2"/>
<path fill-rule="evenodd" clip-rule="evenodd" d="M397.791 395.246L298.281 345.793V246.886L397.791 296.34L497.301 246.886V345.793L397.791 395.246ZM397.791 197.433L497.301 246.886L397.791 296.34L298.281 246.886L397.791 197.433Z" fill="#F38020"/>
<path fill-rule="evenodd" clip-rule="evenodd" d="M397.789 296.339L497.299 246.886V345.793L397.789 395.246V296.339Z" fill="black" fill-opacity="0.1"/>
<path fill-rule="evenodd" clip-rule="evenodd" d="M397.791 296.34L298.281 246.887V345.794L397.791 395.247V296.34ZM430.132 234.523V246.887C430.132 253.715 416.209 259.25 399.035 259.25C381.861 259.25 367.938 253.715 367.938 246.887V234.523C367.938 241.352 381.861 246.887 399.035 246.887C416.209 246.887 430.132 241.352 430.132 234.523Z" fill="black" fill-opacity="0.2"/>
<path fill-rule="evenodd" clip-rule="evenodd" d="M298.229 444.747L198.719 395.294V296.387L298.229 345.84L397.739 296.387V395.294L298.229 444.747V444.747ZM298.229 246.934L397.739 296.387L298.229 345.841L198.719 296.387L298.229 246.934V246.934Z" fill="#F38020"/>
<path fill-rule="evenodd" clip-rule="evenodd" d="M298.227 345.84L397.737 296.387V395.294L298.227 444.747V345.84Z" fill="black" fill-opacity="0.1"/>
<path fill-rule="evenodd" clip-rule="evenodd" d="M298.229 345.84L198.719 296.387V395.294L298.229 444.747V345.84ZM330.57 284.023V296.387C330.57 303.215 316.647 308.75 299.473 308.75C282.298 308.75 268.376 303.215 268.376 296.387V284.023C268.376 290.852 282.298 296.387 299.473 296.387C316.647 296.387 330.57 290.852 330.57 284.023Z" fill="black" fill-opacity="0.2"/>
<path fill-rule="evenodd" clip-rule="evenodd" d="M198.674 593.25L99.1641 543.797V444.89L198.674 494.343L298.184 444.89V543.797L198.674 593.25ZM198.674 395.437L298.184 444.89L198.674 494.343L99.1641 444.89L198.674 395.437Z" fill="#F38020"/>
<path fill-rule="evenodd" clip-rule="evenodd" d="M198.672 494.344L298.182 444.891V543.798L198.672 593.251V494.344Z" fill="black" fill-opacity="0.1"/>
<path fill-rule="evenodd" clip-rule="evenodd" d="M198.674 494.344L99.1641 444.891V543.798L198.674 593.251V494.344ZM231.015 432.527V444.891C231.015 451.719 217.092 457.254 199.918 457.254C182.744 457.254 168.821 451.719 168.821 444.891V432.527C168.821 439.355 182.744 444.891 199.918 444.891C217.092 444.891 231.015 439.355 231.015 432.527Z" fill="black" fill-opacity="0.2"/>
<path fill-rule="evenodd" clip-rule="evenodd" d="M497.354 246.743L397.844 197.289V98.3822L497.354 147.836L596.864 98.3822V197.289L497.354 246.743ZM497.354 48.9287L596.864 98.3822L497.354 147.836L397.844 98.3822L497.354 48.9287Z" fill="#F38020"/>
<path fill-rule="evenodd" clip-rule="evenodd" d="M497.352 147.835L596.862 98.3818V197.289L497.352 246.742V147.835Z" fill="black" fill-opacity="0.1"/>
<path fill-rule="evenodd" clip-rule="evenodd" d="M497.354 147.835L397.844 98.3819V197.289L497.354 246.742V147.835ZM529.695 86.0186V98.3819C529.695 105.21 515.772 110.745 498.598 110.745C481.423 110.745 467.501 105.21 467.501 98.3819V86.0186C467.501 92.8467 481.423 98.3819 498.598 98.3819C515.772 98.3819 529.695 92.8467 529.695 86.0186Z" fill="black" fill-opacity="0.2"/>
</svg>
